<?xml version="1.0" encoding="UTF-8"?>
<svg version="1.1" xmlns="http://www.w3.org/2000/svg" width="506" height="475">
<path d="M0 0 C0.73049057 -0.0033284 1.46098114 -0.0066568 2.21360779 -0.01008606 C3.76455048 -0.01515521 5.31550411 -0.01749439 6.86645508 -0.01733398 C9.21259248 -0.01950032 11.55824398 -0.03759919 13.90429688 -0.05664062 C27.19300393 -0.10789076 27.19300393 -0.10789076 33.50219727 1.60864258 C38.36653452 2.85589458 43.40737834 3.37881655 48.37109375 4.10546875 C57.56830456 5.49214679 66.63938733 6.9788597 75.68359375 9.16796875 C76.38484375 9.33377441 77.08609375 9.49958008 77.80859375 9.67041016 C109.80372811 17.25709425 140.70436804 27.64754507 170.68359375 41.16796875 C171.42222656 41.49812988 172.16085937 41.82829102 172.921875 42.16845703 C190.26999248 49.94775926 190.26999248 49.94775926 193.0390625 54.296875 C198.69749305 70.84712023 199.09470247 87.71247587 199.30541992 105.01147461 C199.50215873 118.90986777 200.50301621 132.09837138 205.68359375 145.16796875 C206.02003906 146.02261719 206.35648438 146.87726563 206.703125 147.7578125 C210.9877222 157.82585892 216.78875952 167.54566165 222.9921875 176.5546875 C224.68359375 179.16796875 224.68359375 179.16796875 224.68359375 181.16796875 C225.34359375 181.16796875 226.00359375 181.16796875 226.68359375 181.16796875 C227.82519531 182.62988281 227.82519531 182.62988281 229.07421875 184.68359375 C229.53376953 185.43439209 229.99332031 186.18519043 230.46679688 186.95874023 C230.95083984 187.77028564 231.43488281 188.58183105 231.93359375 189.41796875 C232.42794922 190.24047119 232.92230469 191.06297363 233.43164062 191.91040039 C245.77349202 212.63489887 250.62351826 232.21507897 245.68359375 256.16796875 C244.51587744 260.65249628 243.26021099 264.3030429 240.68359375 268.16796875 C240.02359375 268.16796875 239.36359375 268.16796875 238.68359375 268.16796875 C238.82667969 266.80478516 238.82667969 266.80478516 238.97265625 265.4140625 C240.08977107 252.74909796 239.8482125 240.63912744 233.68359375 229.16796875 C233.20212891 228.12382812 233.20212891 228.12382812 232.7109375 227.05859375 C231.10712358 223.60422531 229.42178599 220.68768254 226.93359375 217.79296875 C224.68359375 215.16796875 224.68359375 215.16796875 224.68359375 213.16796875 C224.02359375 213.16796875 223.36359375 213.16796875 222.68359375 213.16796875 C222.35359375 212.83796875 222.02359375 212.50796875 221.68359375 212.16796875 C222.08191406 213.05097656 222.48023438 213.93398438 222.890625 214.84375 C233.06726643 237.89594751 235.93943218 261.85293388 227.55859375 285.98046875 C224.74715185 292.78983261 220.65951063 298.74236194 215.68359375 304.16796875 C215.02359375 304.16796875 214.36359375 304.16796875 213.68359375 304.16796875 C213.68359375 304.82796875 213.68359375 305.48796875 213.68359375 306.16796875 C212.36359375 305.83796875 211.04359375 305.50796875 209.68359375 305.16796875 C209.57402344 304.04519531 209.46445312 302.92242187 209.3515625 301.765625 C208.16981087 290.33989889 205.90491164 281.43055909 200.68359375 271.16796875 C200.68359375 270.50796875 200.68359375 269.84796875 200.68359375 269.16796875 C200.02359375 269.16796875 199.36359375 269.16796875 198.68359375 269.16796875 C198.68359375 268.17796875 198.68359375 267.18796875 198.68359375 266.16796875 C197.69359375 265.83796875 196.70359375 265.50796875 195.68359375 265.16796875 C194.01692708 263.50130208 192.35026042 261.83463542 190.68359375 260.16796875 C179.43091903 252.26068381 166.3018277 252.16530233 153.21484375 254.3515625 C142.33494658 256.86693696 132.80118612 261.79814394 123.68359375 268.16796875 C122.78511719 268.76996094 121.88664063 269.37195313 120.9609375 269.9921875 C116.40335514 273.08651072 112.56780975 276.24778778 108.68359375 280.16796875 C106.99560024 281.60881056 105.28654186 283.02529415 103.55859375 284.41796875 C102.60597656 285.18882812 101.65335938 285.9596875 100.671875 286.75390625 C99.68574219 287.55054688 98.69960938 288.3471875 97.68359375 289.16796875 C95.70358105 290.79193777 93.72438513 292.41690328 91.74609375 294.04296875 C83.07606687 301.16796875 83.07606687 301.16796875 80.68359375 301.16796875 C80.68359375 301.82796875 80.68359375 302.48796875 80.68359375 303.16796875 C78.62890625 304.6484375 78.62890625 304.6484375 75.80859375 306.35546875 C72.12871236 308.61463644 68.62311602 310.93598102 65.18359375 313.54296875 C52.19877856 322.67131434 36.86911425 327.99287906 21.68359375 332.16796875 C20.71885132 332.43843018 20.71885132 332.43843018 19.73461914 332.71435547 C15.74075087 333.59765594 11.63375461 333.59699213 7.55859375 333.79296875 C6.63949219 333.84453125 5.72039062 333.89609375 4.7734375 333.94921875 C3.89558594 333.99304688 3.01773438 334.036875 2.11328125 334.08203125 C0.91034424 334.14318115 0.91034424 334.14318115 -0.31689453 334.20556641 C-2.31640625 334.16796875 -2.31640625 334.16796875 -4.31640625 333.16796875 C-1.66263146 326.09123597 1.91635417 319.62407438 5.80859375 313.16796875 C6.15744629 312.57951172 6.50629883 311.99105469 6.86572266 311.38476562 C7.74867332 309.94310931 8.71016889 308.55014778 9.68359375 307.16796875 C10.34359375 307.16796875 11.00359375 307.16796875 11.68359375 307.16796875 C11.79300293 306.58998535 11.90241211 306.01200195 12.01513672 305.41650391 C12.76690527 302.88772801 13.81369291 301.30910779 15.37890625 299.19140625 C16.20044189 298.06907593 16.20044189 298.06907593 17.03857422 296.92407227 C17.91473389 295.74542603 17.91473389 295.74542603 18.80859375 294.54296875 C20.00172186 292.91436995 21.19443389 291.28546624 22.38671875 289.65625 C22.95970703 288.87717285 23.53269531 288.0980957 24.12304688 287.29541016 C32.64307413 275.68034171 40.27061437 264.13036992 45.66796875 250.72265625 C47.850472 245.44529184 50.37531668 241.0110848 54.68359375 237.16796875 C56.34500138 236.48830199 58.01059416 235.8185797 59.68359375 235.16796875 C65.25871031 224.68517916 61.51726879 210.44045947 58.31274414 199.79516602 C53.77106384 185.07505477 53.77106384 185.07505477 43.68359375 174.16796875 C36.11371469 172.87753299 28.6349355 174.3397713 21.33984375 176.4140625 C16.23393194 177.86324041 11.5675063 178.35366165 6.24609375 178.41796875 C4.96863281 178.44375 3.69117188 178.46953125 2.375 178.49609375 C-2.31666267 178.07905707 -5.37272246 177.07374439 -8.78100586 173.73193359 C-12.63645255 169.03223349 -12.94399445 164.96109814 -12.81640625 159.04296875 C-12.56563962 152.62421891 -12.56563962 152.62421891 -15.7890625 147.27734375 C-16.62308594 146.58125 -17.45710937 145.88515625 -18.31640625 145.16796875 C-19.25390625 142.54296875 -19.25390625 142.54296875 -19.31640625 140.16796875 C-18.65640625 139.17796875 -17.99640625 138.18796875 -17.31640625 137.16796875 C-18.16203125 136.30171875 -19.00765625 135.43546875 -19.87890625 134.54296875 C-21.9485583 132.05237052 -22.32428488 131.54614308 -22.25390625 128.16796875 C-20.31640625 121.96796875 -20.31640625 121.96796875 -19.31640625 119.16796875 C-21.83384784 116.44074036 -24.47127218 114.3375233 -27.50390625 112.23046875 C-30.02321131 110.35979074 -31.16786806 109.48849853 -32.50390625 106.60546875 C-32.03621462 100.5254775 -26.53752906 95.26703499 -22.31640625 91.16796875 C-21.65640625 91.16796875 -20.99640625 91.16796875 -20.31640625 91.16796875 C-19.98640625 90.17796875 -19.65640625 89.18796875 -19.31640625 88.16796875 C-18.65640625 88.16796875 -17.99640625 88.16796875 -17.31640625 88.16796875 C-16.88328125 86.80671875 -16.88328125 86.80671875 -16.44140625 85.41796875 C-15.31640625 82.16796875 -15.31640625 82.16796875 -14.19140625 80.10546875 C-13.10239885 77.69409521 -13.17109116 75.78364036 -13.31640625 73.16796875 C-14.49203125 72.79671875 -14.49203125 72.79671875 -15.69140625 72.41796875 C-18.63957733 71.01407776 -19.21888395 70.16121138 -20.31640625 67.16796875 C-17.67640625 67.16796875 -15.03640625 67.16796875 -12.31640625 67.16796875 C-12.52136719 66.52214844 -12.72632813 65.87632812 -12.9375 65.2109375 C-15.68732118 55.5931419 -16.01455638 46.11860578 -16.31640625 36.16796875 C-18.19246614 40.32613985 -19.70005043 44.09150912 -20.50390625 48.60546875 C-20.66246094 49.47042969 -20.82101563 50.33539063 -20.984375 51.2265625 C-21.09394531 51.86722656 -21.20351562 52.50789063 -21.31640625 53.16796875 C-21.97640625 53.16796875 -22.63640625 53.16796875 -23.31640625 53.16796875 C-27.36912827 42.73745708 -26.28822419 29.52987016 -22.31640625 19.16796875 C-20.52548431 15.67686492 -18.52409402 12.4087806 -16.31640625 9.16796875 C-15.65640625 8.17796875 -14.99640625 7.18796875 -14.31640625 6.16796875 C-13.65640625 6.16796875 -12.99640625 6.16796875 -12.31640625 6.16796875 C-11.98640625 5.17796875 -11.65640625 4.18796875 -11.31640625 3.16796875 C-10.65640625 3.16796875 -9.99640625 3.16796875 -9.31640625 3.16796875 C-9.31640625 2.50796875 -9.31640625 1.84796875 -9.31640625 1.16796875 C-6.33220826 -0.32413024 -3.27268903 0.00516473 0 0 Z " fill="#FEFEFD" transform="translate(249.31640625,120.83203125)"/>
<path d="M0 0 C1.48304886 1.30811176 2.9622081 2.62064614 4.4375 3.9375 C6.26574788 5.06402333 8.12243321 6.14524854 10 7.1875 C15.82560757 10.51962772 21.43832128 14.12488551 27.05078125 17.79956055 C30.47523145 20.0369867 33.90770703 22.24423408 37.4140625 24.3515625 C38.02193604 24.71709229 38.62980957 25.08262207 39.25610352 25.45922852 C40.89743929 26.43879094 42.54425103 27.40916125 44.19140625 28.37890625 C45.30322266 29.15041016 45.30322266 29.15041016 46.4375 29.9375 C46.4375 30.5975 46.4375 31.2575 46.4375 31.9375 C47.015 32.06125 47.5925 32.185 48.1875 32.3125 C50.46085767 32.94398824 52.3628529 33.82608191 54.4375 34.9375 C54.4375 35.5975 54.4375 36.2575 54.4375 36.9375 C55.015 37.06125 55.5925 37.185 56.1875 37.3125 C58.46085767 37.94398824 60.3628529 38.82608191 62.4375 39.9375 C62.4375 40.5975 62.4375 41.2575 62.4375 41.9375 C63.015 42.06125 63.5925 42.185 64.1875 42.3125 C66.46085767 42.94398824 68.3628529 43.82608191 70.4375 44.9375 C70.4375 45.5975 70.4375 46.2575 70.4375 46.9375 C71.118125 47.185 71.79875 47.4325 72.5 47.6875 C77.85441317 49.96597369 82.47927293 52.93242574 87.1875 56.3125 C90.66691503 58.79026525 94.16102366 60.94258171 97.9375 62.9375 C102.48105357 65.34291071 106.59594397 68.05000073 110.734375 71.09375 C113.32992273 72.8641236 116.00643784 74.33343739 118.76928711 75.82275391 C126.08324336 79.85961962 126.08324336 79.85961962 127.26171875 83.4453125 C127.25085819 85.75499134 126.93091759 87.69350453 126.4375 89.9375 C123.73023634 90.4439814 121.02192876 90.942851 118.3125 91.4375 C117.55195313 91.58058594 116.79140625 91.72367187 116.0078125 91.87109375 C115.26015625 92.00644531 114.5125 92.14179687 113.7421875 92.28125 C112.7210083 92.46977539 112.7210083 92.46977539 111.67919922 92.66210938 C108.91939596 93.00114859 106.21510215 92.97921618 103.4375 92.9375 C103.48174619 97.54635109 103.55167349 102.15384425 103.64501953 106.76196289 C103.67317694 108.32825897 103.69441753 109.89469575 103.70849609 111.46118164 C103.72999967 113.71834066 103.77668189 115.97381739 103.828125 118.23046875 C103.82996796 119.27451118 103.82996796 119.27451118 103.83184814 120.33964539 C103.97675465 125.19205213 105.23756152 127.38773773 108.4375 130.9375 C109.61499207 135.64746826 109.67213569 138.59967778 107.4375 142.9375 C106.7775 142.9375 106.1175 142.9375 105.4375 142.9375 C106.57797873 155.25767155 108.18014436 167.46122764 110.11621094 179.68286133 C111.79142151 190.49018627 111.79142151 190.49018627 111.4375 195.9375 C110.4375 196.9375 110.4375 196.9375 108.06640625 197.0703125 C101.460628 197.05348249 94.99439039 196.7498581 88.4375 195.9375 C87.41487741 192.69409693 87.47628212 190.21637055 87.92578125 186.859375 C88.05428467 185.87066406 88.18278809 184.88195312 88.31518555 183.86328125 C88.45867432 182.81527344 88.60216309 181.76726562 88.75 180.6875 C88.96039917 179.07681641 88.96039917 179.07681641 89.17504883 177.43359375 C89.58908622 174.26728608 90.01190678 171.10227273 90.4375 167.9375 C90.7502821 165.60099096 91.06169263 163.26438986 91.3659668 160.92675781 C91.60703586 159.07545649 91.85593792 157.22517979 92.10546875 155.375 C93.11126568 148.29155763 93.11126568 148.29155763 90.9375 141.9375 C88.9792781 139.32653747 88.96427422 137.07971251 89.0703125 133.875 C89.62486047 130.94887454 91.59164757 129.23083181 93.4375 126.9375 C94.59567248 119.75683062 94.55687901 112.63363665 94.5 105.375 C94.49323242 103.71887695 94.49323242 103.71887695 94.48632812 102.02929688 C94.4746514 99.331973 94.45827525 96.63476653 94.4375 93.9375 C93.77218262 93.99808594 93.10686523 94.05867188 92.42138672 94.12109375 C89.38533412 94.39599317 86.34892821 94.6667823 83.3125 94.9375 C82.26578125 95.03289062 81.2190625 95.12828125 80.140625 95.2265625 C75.2257167 95.6620607 70.37777946 96.07425514 65.4375 95.9375 C65.22996094 94.84050781 65.02242187 93.74351563 64.80859375 92.61328125 C63.42773484 83.71799353 63.42773484 83.71799353 58.375 76.8125 C57.08367057 76.14485521 55.76784993 75.52354634 54.4375 74.9375 C52.70598217 73.96249706 50.97701564 72.98295559 49.25 72 C47.31650508 70.97160108 45.37891757 69.9508631 43.4375 68.9375 C42.52097656 68.4528125 41.60445312 67.968125 40.66015625 67.46875 C20.43256768 56.6317904 20.43256768 56.6317904 -1.5625 51.9375 C-0.6653125 52.2778125 0.231875 52.618125 1.15625 52.96875 C17.85014932 59.4091509 34.9179165 67.38573061 49.4375 77.9375 C49.4375 78.5975 49.4375 79.2575 49.4375 79.9375 C50.5821875 80.30875 50.5821875 80.30875 51.75 80.6875 C54.87339777 82.14024315 55.69008384 82.9949845 57.4375 85.9375 C58.10848176 88.5927526 58.63478074 91.11981283 59.0625 93.8125 C59.18367187 94.48796875 59.30484375 95.1634375 59.4296875 95.859375 C61.54678737 108.42390248 61.57653555 121.11337536 61.5 133.8125 C61.49496663 135.29036304 61.49040702 136.76822777 61.48632812 138.24609375 C61.47548718 141.80993195 61.45832779 145.37370447 61.4375 148.9375 C57.00402445 149.08494567 55.1775234 148.35338217 51.4375 145.9375 C48.71822545 144.55983996 45.95206529 143.28391682 43.1875 142 C42.42679199 141.64446045 41.66608398 141.2889209 40.88232422 140.92260742 C36.49714045 138.87834759 32.10465107 136.85427245 27.66674805 134.92651367 C26.15498459 134.25581454 24.65210975 133.5647824 23.15795898 132.85571289 C15.41776205 129.20796538 7.46384073 126.32015826 -0.625 123.5625 C-1.31859619 123.32449677 -2.01219238 123.08649353 -2.72680664 122.84127808 C-16.17940128 118.23930747 -29.77225464 114.39984716 -43.5625 110.9375 C-45.12007154 110.53624109 -46.67738889 110.13399332 -48.234375 109.73046875 C-76.23337129 102.52793463 -104.67651136 98.82677141 -133.5625 97.9375 C-132.9381766 93.55902141 -131.33056094 90.16767047 -129.3125 86.25 C-128.68094658 85.0143449 -128.0494365 83.77866764 -127.41796875 82.54296875 C-127.10520996 81.93630371 -126.79245117 81.32963867 -126.47021484 80.70458984 C-125.16713966 78.16783401 -123.89600762 75.61544081 -122.625 73.0625 C-121.9375 71.6875 -121.25 70.3125 -120.5625 68.9375 C-119.9025 68.9375 -119.2425 68.9375 -118.5625 68.9375 C-117.48724806 66.28521188 -116.46793849 63.65381546 -115.5625 60.9375 C-114.9025 60.9375 -114.2425 60.9375 -113.5625 60.9375 C-112.13731771 57.61207466 -111.22491789 54.48829859 -110.5625 50.9375 C-114.20794092 48.67322498 -117.85585335 46.41300366 -121.50610352 44.15649414 C-122.74735002 43.38839686 -123.98791612 42.61919891 -125.2277832 41.84887695 C-127.01075051 40.74139506 -128.79613267 39.63790329 -130.58203125 38.53515625 C-131.65557861 37.87008057 -132.72912598 37.20500488 -133.83520508 36.51977539 C-136.51983803 34.83919617 -136.51983803 34.83919617 -139.5625 33.9375 C-139.5625 33.2775 -139.5625 32.6175 -139.5625 31.9375 C-140.201875 31.710625 -140.84125 31.48375 -141.5 31.25 C-151.37266281 27.0188588 -160.64564755 20.8820683 -169.5625 14.9375 C-169.5625 14.2775 -169.5625 13.6175 -169.5625 12.9375 C-158.98753825 10.7997658 -148.30337436 10.07001889 -137.56835938 9.1875 C-122.53671205 8.0495053 -122.53671205 8.0495053 -107.625 5.9375 C-101.66678113 4.86765407 -95.70371011 4.35182202 -89.6784668 3.828125 C-80.17848791 3.00169962 -70.68491725 2.11515362 -61.19296265 1.20159912 C-59.3741327 1.02727217 -57.55514426 0.85459008 -55.73599243 0.68365479 C-46.82433538 -0.15414691 -38.01825024 -1.078079 -29.20068359 -2.64794922 C-20.04556408 -4.08653824 -7.86213039 -5.68316071 0 0 Z M-15.5625 46.9375 C-14.0775 47.9275 -14.0775 47.9275 -12.5625 48.9375 C-11.5725 48.6075 -10.5825 48.2775 -9.5625 47.9375 C-12.5325 47.4425 -12.5325 47.4425 -15.5625 46.9375 Z " fill="#FEFEFD" transform="translate(379.5625,15.0625)"/>
<path d="M0 0 C1.9453125 1.0859375 1.9453125 1.0859375 4.6953125 3.0859375 C3.32267533 7.52180451 1.40975396 9.52592674 -2.2421875 12.3359375 C-3.11746094 13.02171875 -3.99273437 13.7075 -4.89453125 14.4140625 C-7.3046875 16.0859375 -7.3046875 16.0859375 -10.3046875 17.0859375 C-10.3046875 17.7459375 -10.3046875 18.4059375 -10.3046875 19.0859375 C-12.38671875 20.99609375 -12.38671875 20.99609375 -15.1171875 23.1484375 C-16.01050781 23.86128906 -16.90382812 24.57414062 -17.82421875 25.30859375 C-20.3046875 27.0859375 -20.3046875 27.0859375 -23.3046875 28.0859375 C-23.6346875 29.0759375 -23.9646875 30.0659375 -24.3046875 31.0859375 C-26.8671875 32.2734375 -26.8671875 32.2734375 -29.3046875 33.0859375 C-29.3046875 33.7459375 -29.3046875 34.4059375 -29.3046875 35.0859375 C-31.23828125 36.7421875 -31.23828125 36.7421875 -33.7421875 38.5859375 C-37.05325542 40.88504013 -37.05325542 40.88504013 -39.3046875 44.0859375 C-37.54125 44.611875 -37.54125 44.611875 -35.7421875 45.1484375 C-31.45965809 46.57817431 -27.3849922 48.35222499 -23.3046875 50.2734375 C-22.6748999 50.56943848 -22.0451123 50.86543945 -21.39624023 51.17041016 C-17.84717491 52.85087386 -14.32052971 54.57145284 -10.8046875 56.3203125 C-10.05445313 56.68745361 -9.30421875 57.05459473 -8.53125 57.43286133 C-7.08274679 58.14234201 -5.63964259 58.86299052 -4.203125 59.59643555 C0.27017624 61.77533481 3.62608851 62.75923728 8.6953125 62.0859375 C12.58823625 60.67316107 16.23937025 58.78561334 19.93554688 56.9296875 C25.81682107 54.11712255 30.51901384 52.90077166 37.0078125 54.7421875 C38.5703125 55.5234375 40.1328125 56.3046875 41.6953125 57.0859375 C40.52202389 61.92575303 37.64844711 64.06690523 33.99609375 67.125 C31.51501783 69.23960121 29.15728368 71.43814808 26.8203125 73.7109375 C26.08039063 74.42507813 25.34046875 75.13921875 24.578125 75.875 C21.16684144 79.88078111 20.42945769 83.42713633 20.71875 88.60546875 C20.7703125 89.62705078 20.821875 90.64863281 20.875 91.70117188 C20.93945312 92.75626953 21.00390625 93.81136719 21.0703125 94.8984375 C21.12703125 95.97287109 21.18375 97.04730469 21.2421875 98.15429688 C21.38323258 100.79889216 21.53460226 103.44247644 21.6953125 106.0859375 C12.64964735 105.31935571 12.64964735 105.31935571 8.6953125 102.0859375 C7.21875 99.59765625 7.21875 99.59765625 6.0703125 96.7734375 C5.65136719 95.79761719 5.23242188 94.82179688 4.80078125 93.81640625 C3.96476912 91.75148583 3.16502322 89.67183276 2.3828125 87.5859375 C-2.05989445 81.00414943 -14.98229356 80.12782942 -22.28515625 78.42382812 C-28.90819439 76.82908133 -35.03690997 74.73725915 -41.3046875 72.0859375 C-43.3418427 71.32376858 -45.38252899 70.57081491 -47.4296875 69.8359375 C-48.82574219 69.33320313 -48.82574219 69.33320313 -50.25 68.8203125 C-51.26707031 68.45679688 -51.26707031 68.45679688 -52.3046875 68.0859375 C-52.24933838 68.64240967 -52.19398926 69.19888184 -52.13696289 69.7722168 C-51.01566996 81.18466861 -50.07260267 92.56845974 -49.64672852 104.0300293 C-49.49812299 107.83138123 -49.28322276 111.57118726 -48.78125 115.34375 C-48.38098422 118.48682064 -48.19829966 121.42601317 -48.2421875 124.5859375 C-48.25121094 125.441875 -48.26023437 126.2978125 -48.26953125 127.1796875 C-48.28113281 127.80875 -48.29273437 128.4378125 -48.3046875 129.0859375 C-55.47462487 128.78083378 -60.87490051 125.7613591 -65.77734375 120.5078125 C-69.17871083 115.6518415 -70.84839444 109.97847951 -72.72558594 104.41064453 C-74.9534143 97.86761553 -77.55284732 91.51408254 -80.2421875 85.1484375 C-83.37555308 77.72362101 -86.45790989 70.28926482 -89.3671875 62.7734375 C-89.65392334 62.03295166 -89.94065918 61.29246582 -90.23608398 60.52954102 C-91.31318454 57.7296113 -92.35588593 54.93234222 -93.3046875 52.0859375 C-95.35901771 51.3367617 -97.42230771 50.60715312 -99.51416016 49.97021484 C-114.68333044 45.16332641 -129.91280306 38.72506443 -143.3046875 30.0859375 C-143.3046875 29.4259375 -143.3046875 28.7659375 -143.3046875 28.0859375 C-143.8821875 27.8384375 -144.4596875 27.5909375 -145.0546875 27.3359375 C-148.33593283 25.51302343 -150.72193362 23.88987625 -151.91796875 20.1875 C-152.3046875 18.0859375 -152.3046875 18.0859375 -152.3046875 14.0859375 C-150.14578292 11.07889184 -148.81699803 10.25670768 -145.3046875 9.0859375 C-129.58563041 7.75994342 -117.51646089 10.96305967 -103.36914062 17.42724609 C-88.37058348 25.0671061 -88.37058348 25.0671061 -72.4296875 24.5234375 C-70.36637149 23.41706331 -68.32785142 22.26413296 -66.3046875 21.0859375 C-62.34307608 19.32576377 -58.3237308 17.7099287 -54.3046875 16.0859375 C-53.21961914 15.64580322 -52.13455078 15.20566895 -51.01660156 14.75219727 C-46.49945069 12.92277101 -41.98127381 11.09598736 -37.45898438 9.27929688 C-30.6091645 6.50553294 -23.92024243 3.5396878 -17.29418945 0.26391602 C-11.68291337 -1.94714214 -5.65144729 -2.24142147 0 0 Z " fill="#FDFDFC" transform="translate(159.3046875,188.9140625)"/>
<path d="M0 0 C4.43973305 1.04221241 7.1303129 2.7357094 10.71484375 5.44921875 C11.3281958 5.89958496 11.94154785 6.34995117 12.57348633 6.81396484 C16.67885781 9.88851042 20.26871178 13.23293629 23.80859375 16.9453125 C31.38037631 24.41193141 39.78421538 28.57517855 49.77734375 31.88671875 C50.44145264 32.13768311 51.10556152 32.38864746 51.78979492 32.6472168 C57.77521722 34.83456937 63.50610285 35.59378886 69.83984375 36.07421875 C70.80083984 36.15607422 71.76183594 36.23792969 72.75195312 36.32226562 C75.09312148 36.52027489 77.43462007 36.70823467 79.77734375 36.88671875 C79.28234375 34.90671875 79.28234375 34.90671875 78.77734375 32.88671875 C78.11734375 32.88671875 77.45734375 32.88671875 76.77734375 32.88671875 C71.35191159 27.18415253 65.44150479 20.41155659 62.77734375 12.88671875 C62.88978692 9.34475881 63.20557063 7.030265 64.77734375 3.88671875 C71.52734375 3.76171875 71.52734375 3.76171875 73.77734375 4.88671875 C73.77734375 5.54671875 73.77734375 6.20671875 73.77734375 6.88671875 C74.61458984 7.24443359 74.61458984 7.24443359 75.46875 7.609375 C78.29292171 9.17198777 80.36242443 11.11678675 82.71484375 13.32421875 C85.27445309 15.72558331 87.5660908 17.76219378 90.59375 19.546875 C91.31433594 19.98902344 92.03492188 20.43117188 92.77734375 20.88671875 C92.77734375 21.54671875 92.77734375 22.20671875 92.77734375 22.88671875 C93.3496875 23.0053125 93.92203125 23.12390625 94.51171875 23.24609375 C98.60541645 24.40362207 102.1254632 26.74801546 105.77734375 28.88671875 C106.55722656 29.33917969 107.33710938 29.79164063 108.140625 30.2578125 C108.86636719 30.69222656 109.59210938 31.12664062 110.33984375 31.57421875 C111.00113281 31.96996094 111.66242188 32.36570312 112.34375 32.7734375 C112.81683594 33.14082031 113.28992188 33.50820313 113.77734375 33.88671875 C113.77734375 34.54671875 113.77734375 35.20671875 113.77734375 35.88671875 C114.35484375 36.13421875 114.93234375 36.38171875 115.52734375 36.63671875 C118.10674354 38.06971863 119.83855967 39.67096551 121.77734375 41.88671875 C121.77734375 42.54671875 121.77734375 43.20671875 121.77734375 43.88671875 C122.43734375 43.88671875 123.09734375 43.88671875 123.77734375 43.88671875 C128.09275885 52.00002772 131.42642784 60.0977292 134.27734375 68.82421875 C136.93113792 76.71734182 139.63569358 84.34057269 143.3125 91.81640625 C145.15271902 95.67350531 146.74162872 99.6121023 148.33984375 103.57421875 C150.51684324 108.93783215 152.80455069 114.16302692 155.46484375 119.30859375 C168.30655252 144.53337884 168.30655252 144.53337884 169.77734375 152.88671875 C168.17917675 154.48488575 166.50207877 154.01402856 164.28930664 154.01611328 C162.85760887 154.02084152 162.85760887 154.02084152 161.39698792 154.02566528 C160.3584819 154.02364105 159.31997589 154.02161682 158.25 154.01953125 C157.19074814 154.02048798 156.13149628 154.0214447 155.04014587 154.02243042 C152.79474834 154.02311245 150.54934885 154.02125659 148.30395508 154.01708984 C144.85819075 154.0117472 141.41255709 154.01703137 137.96679688 154.0234375 C135.79036429 154.02277662 133.6139318 154.02149525 131.4375 154.01953125 C130.40101822 154.02155548 129.36453644 154.02357971 128.29664612 154.02566528 C127.33902878 154.02251312 126.38141144 154.01936096 125.39477539 154.01611328 C124.54951797 154.01531769 123.70426056 154.01452209 122.83338928 154.01370239 C120.77734375 153.88671875 120.77734375 153.88671875 118.77734375 152.88671875 C117.94910076 149.8250115 117.24279956 146.79967777 116.58984375 143.69921875 C116.14926661 141.69513005 115.70781101 139.69123433 115.265625 137.6875 C115.0279541 136.59904785 114.7902832 135.5105957 114.54541016 134.38916016 C113.29683154 128.6955464 112.02168573 123.00827819 110.71932983 117.32675171 C110.29018689 115.44309181 109.8711319 113.55714249 109.45239258 111.67114258 C105.31446035 92.03815296 105.31446035 92.03815296 92.59765625 77.47265625 C83.55191845 72.63837671 73.52231231 69.58556797 63.65234375 66.94921875 C43.78779449 61.29563164 25.72551434 46.88100213 11.77734375 31.88671875 C11.77734375 31.22671875 11.77734375 30.56671875 11.77734375 29.88671875 C11.11734375 29.88671875 10.45734375 29.88671875 9.77734375 29.88671875 C8.26953125 28.20703125 8.26953125 28.20703125 6.65234375 26.01171875 C6.11351563 25.29242188 5.5746875 24.573125 5.01953125 23.83203125 C3.77734375 21.88671875 3.77734375 21.88671875 3.77734375 19.88671875 C3.11734375 19.88671875 2.45734375 19.88671875 1.77734375 19.88671875 C-0.1328125 17.65625 -0.1328125 17.65625 -2.28515625 14.69921875 C-2.99800781 13.73628906 -3.71085937 12.77335937 -4.4453125 11.78125 C-6.16441776 8.98156428 -6.99442037 7.14325509 -7.22265625 3.88671875 C-5.07872412 0.49215954 -4.04322615 -0.14212553 0 0 Z " fill="#FDFDFC" transform="translate(59.22265625,301.11328125)"/>
</svg>
